<mxfile host="65bd71144e">
    <diagram id="6GtpgPVb9rbRwgWwzKAN" name="第 1 页">
        <mxGraphModel dx="911" dy="1556" grid="1" gridSize="10" guides="1" tooltips="1" connect="1" arrows="1" fold="1" page="1" pageScale="1" pageWidth="1169" pageHeight="827" math="0" shadow="0">
            <root>
                <mxCell id="0"/>
                <mxCell id="1" parent="0"/>
                <mxCell id="140" value="阿里云 ECS Master 节点" style="swimlane;" parent="1" vertex="1">
                    <mxGeometry x="40" y="520" width="700" height="770" as="geometry"/>
                </mxCell>
                <mxCell id="114" value="物理机" style="rounded=0;whiteSpace=wrap;html=1;fillColor=#666666;fontColor=#FFFFFF;" parent="140" vertex="1">
                    <mxGeometry x="20" y="710" width="660" height="40" as="geometry"/>
                </mxCell>
                <mxCell id="115" value="宿主操作系统 Linux" style="rounded=0;whiteSpace=wrap;html=1;fillColor=#fff2cc;strokeColor=#d6b656;" parent="140" vertex="1">
                    <mxGeometry x="20" y="650" width="660" height="40" as="geometry"/>
                </mxCell>
                <mxCell id="131" value="客户操作系统 Linux" style="swimlane;horizontal=0;fillColor=#FFB366;" parent="140" vertex="1">
                    <mxGeometry x="20" y="40" width="660" height="470" as="geometry"/>
                </mxCell>
                <mxCell id="124" value="Docker Engine" style="rounded=0;whiteSpace=wrap;html=1;fillColor=#66B2FF;strokeColor=#000000;fontColor=#FFFFFF;" parent="131" vertex="1">
                    <mxGeometry x="40" y="360" width="600" height="40" as="geometry"/>
                </mxCell>
                <mxCell id="247" value="客户操作系统 Linux" style="rounded=0;whiteSpace=wrap;html=1;fillColor=#ffe6cc;strokeColor=#d79b00;" parent="131" vertex="1">
                    <mxGeometry x="40" y="420.5" width="600" height="40" as="geometry"/>
                </mxCell>
                <mxCell id="231" value="Kubernetes" style="swimlane;horizontal=0;fillColor=#00CC66;" parent="131" vertex="1">
                    <mxGeometry x="40" y="20" width="600" height="320" as="geometry"/>
                </mxCell>
                <mxCell id="232" value="Pod 容器" style="swimlane;fillColor=#d5e8d4;strokeColor=#82b366;" parent="231" vertex="1">
                    <mxGeometry x="40" y="140" width="120" height="160" as="geometry"/>
                </mxCell>
                <mxCell id="233" value="OpenJDK" style="rounded=0;whiteSpace=wrap;html=1;" parent="232" vertex="1">
                    <mxGeometry x="20" y="100" width="80" height="40" as="geometry"/>
                </mxCell>
                <mxCell id="234" value="Java 应用" style="rounded=0;whiteSpace=wrap;html=1;" parent="232" vertex="1">
                    <mxGeometry x="20" y="40" width="80" height="40" as="geometry"/>
                </mxCell>
                <mxCell id="235" value="Pod 容器" style="swimlane;fillColor=#d5e8d4;strokeColor=#82b366;" parent="231" vertex="1">
                    <mxGeometry x="180" y="140" width="120" height="160" as="geometry"/>
                </mxCell>
                <mxCell id="236" value="OpenJDK" style="rounded=0;whiteSpace=wrap;html=1;" parent="235" vertex="1">
                    <mxGeometry x="20" y="100" width="80" height="40" as="geometry"/>
                </mxCell>
                <mxCell id="237" value="Java 应用" style="rounded=0;whiteSpace=wrap;html=1;" parent="235" vertex="1">
                    <mxGeometry x="20" y="40" width="80" height="40" as="geometry"/>
                </mxCell>
                <mxCell id="238" value="Service" style="rounded=0;whiteSpace=wrap;html=1;fillColor=#dae8fc;strokeColor=#6c8ebf;" parent="231" vertex="1">
                    <mxGeometry x="40" y="80" width="260" height="40" as="geometry"/>
                </mxCell>
                <mxCell id="239" value="Pod 容器" style="swimlane;fillColor=#d5e8d4;strokeColor=#82b366;" parent="231" vertex="1">
                    <mxGeometry x="320" y="140" width="120" height="160" as="geometry"/>
                </mxCell>
                <mxCell id="240" value="OpenJDK" style="rounded=0;whiteSpace=wrap;html=1;" parent="239" vertex="1">
                    <mxGeometry x="20" y="100" width="80" height="40" as="geometry"/>
                </mxCell>
                <mxCell id="241" value="Java 应用" style="rounded=0;whiteSpace=wrap;html=1;" parent="239" vertex="1">
                    <mxGeometry x="20" y="40" width="80" height="40" as="geometry"/>
                </mxCell>
                <mxCell id="242" value="Pod 容器" style="swimlane;fillColor=#d5e8d4;strokeColor=#82b366;" parent="231" vertex="1">
                    <mxGeometry x="460" y="140" width="120" height="160" as="geometry"/>
                </mxCell>
                <mxCell id="243" value="OpenJDK" style="rounded=0;whiteSpace=wrap;html=1;" parent="242" vertex="1">
                    <mxGeometry x="20" y="100" width="80" height="40" as="geometry"/>
                </mxCell>
                <mxCell id="244" value="Java 应用" style="rounded=0;whiteSpace=wrap;html=1;" parent="242" vertex="1">
                    <mxGeometry x="20" y="40" width="80" height="40" as="geometry"/>
                </mxCell>
                <mxCell id="245" value="Service" style="rounded=0;whiteSpace=wrap;html=1;fillColor=#dae8fc;strokeColor=#6c8ebf;" parent="231" vertex="1">
                    <mxGeometry x="320" y="80" width="260" height="40" as="geometry"/>
                </mxCell>
                <mxCell id="246" value="Ingress Nginx" style="rounded=0;whiteSpace=wrap;html=1;fillColor=#e1d5e7;strokeColor=#9673a6;" parent="231" vertex="1">
                    <mxGeometry x="40" y="20" width="540" height="40" as="geometry"/>
                </mxCell>
                <mxCell id="143" value="KVM 虚拟机" style="swimlane;fillColor=#9933FF;strokeColor=#7F00FF;fontColor=#FFFFFF;" parent="140" vertex="1">
                    <mxGeometry x="20" y="530" width="660" height="100" as="geometry"/>
                </mxCell>
                <mxCell id="123" value="虚拟 网络" style="rounded=0;whiteSpace=wrap;html=1;fillColor=#f5f5f5;fontColor=#333333;strokeColor=#666666;" parent="143" vertex="1">
                    <mxGeometry x="20" y="40" width="100" height="40" as="geometry"/>
                </mxCell>
                <mxCell id="144" value="虚拟 CPU" style="rounded=0;whiteSpace=wrap;html=1;fillColor=#dae8fc;strokeColor=#6c8ebf;" parent="143" vertex="1">
                    <mxGeometry x="140" y="40" width="100" height="40" as="geometry"/>
                </mxCell>
                <mxCell id="145" value="虚拟&amp;nbsp; 内存" style="rounded=0;whiteSpace=wrap;html=1;fillColor=#d5e8d4;strokeColor=#82b366;" parent="143" vertex="1">
                    <mxGeometry x="260" y="40" width="100" height="40" as="geometry"/>
                </mxCell>
                <mxCell id="146" value="虚拟&amp;nbsp; 磁盘" style="rounded=0;whiteSpace=wrap;html=1;fillColor=#ffe6cc;strokeColor=#d79b00;" parent="143" vertex="1">
                    <mxGeometry x="380" y="40" width="100" height="40" as="geometry"/>
                </mxCell>
                <mxCell id="147" value="虚拟&amp;nbsp; 设备" style="rounded=0;whiteSpace=wrap;html=1;fillColor=#fff2cc;strokeColor=#d6b656;" parent="143" vertex="1">
                    <mxGeometry x="500" y="40" width="100" height="40" as="geometry"/>
                </mxCell>
                <mxCell id="141" value="个人电脑" style="swimlane;" parent="1" vertex="1">
                    <mxGeometry x="40" y="80" width="330" height="280" as="geometry"/>
                </mxCell>
                <mxCell id="100" value="开发环境" style="rounded=0;whiteSpace=wrap;html=1;" parent="141" vertex="1">
                    <mxGeometry x="20" y="40" width="140" height="100" as="geometry"/>
                </mxCell>
                <mxCell id="99" value="Java 应用" style="rounded=0;whiteSpace=wrap;html=1;" parent="141" vertex="1">
                    <mxGeometry x="180" y="40" width="130" height="40" as="geometry"/>
                </mxCell>
                <mxCell id="98" value="OpenJDK" style="rounded=0;whiteSpace=wrap;html=1;" parent="141" vertex="1">
                    <mxGeometry x="180" y="100" width="130" height="40" as="geometry"/>
                </mxCell>
                <mxCell id="97" value="主机操作系统 Windows" style="rounded=0;whiteSpace=wrap;html=1;" parent="141" vertex="1">
                    <mxGeometry x="20" y="160" width="290" height="40" as="geometry"/>
                </mxCell>
                <mxCell id="96" value="物理机" style="rounded=0;whiteSpace=wrap;html=1;" parent="141" vertex="1">
                    <mxGeometry x="20" y="220" width="290" height="40" as="geometry"/>
                </mxCell>
                <mxCell id="142" value="本地测试/生产环境" style="swimlane;fillColor=#ffcd28;gradientColor=#ffa500;strokeColor=#d79b00;" parent="1" vertex="1">
                    <mxGeometry x="400" y="-80" width="500" height="560" as="geometry"/>
                </mxCell>
                <mxCell id="101" value="物理机" style="rounded=0;whiteSpace=wrap;html=1;fillColor=#d5e8d4;gradientColor=#97d077;strokeColor=#82b366;" parent="142" vertex="1">
                    <mxGeometry x="20" y="500" width="460" height="40" as="geometry"/>
                </mxCell>
                <mxCell id="102" value="宿主操作系统 Linux" style="rounded=0;whiteSpace=wrap;html=1;fillColor=#e6d0de;gradientColor=#d5739d;strokeColor=#996185;" parent="142" vertex="1">
                    <mxGeometry x="20" y="440" width="460" height="40" as="geometry"/>
                </mxCell>
                <mxCell id="105" value="网桥" style="rounded=0;whiteSpace=wrap;html=1;fillColor=#fff2cc;gradientColor=#ffd966;strokeColor=#d6b656;" parent="142" vertex="1">
                    <mxGeometry x="20" y="380" width="460" height="40" as="geometry"/>
                </mxCell>
                <mxCell id="281" value="Docker Engine" style="swimlane;horizontal=0;fillColor=#b1ddf0;strokeColor=#10739e;" parent="142" vertex="1">
                    <mxGeometry x="20" y="40" width="460" height="320" as="geometry"/>
                </mxCell>
                <mxCell id="110" value="容器 8080" style="swimlane;fillColor=#6d8764;fontColor=#ffffff;strokeColor=#3A5431;" parent="281" vertex="1">
                    <mxGeometry x="40" y="140" width="120" height="160" as="geometry"/>
                </mxCell>
                <mxCell id="103" value="OpenJDK" style="rounded=0;whiteSpace=wrap;html=1;fillColor=#d0cee2;strokeColor=#56517e;" parent="110" vertex="1">
                    <mxGeometry x="20" y="100" width="80" height="40" as="geometry"/>
                </mxCell>
                <mxCell id="104" value="Java 应用" style="rounded=0;whiteSpace=wrap;html=1;fillColor=#fad9d5;strokeColor=#ae4132;" parent="110" vertex="1">
                    <mxGeometry x="20" y="40" width="80" height="40" as="geometry"/>
                </mxCell>
                <mxCell id="111" value="容器 8080" style="swimlane;fillColor=#647687;fontColor=#ffffff;strokeColor=#314354;" parent="281" vertex="1">
                    <mxGeometry x="180" y="140" width="120" height="160" as="geometry"/>
                </mxCell>
                <mxCell id="112" value="OpenJDK" style="rounded=0;whiteSpace=wrap;html=1;fillColor=#d0cee2;strokeColor=#56517e;" parent="111" vertex="1">
                    <mxGeometry x="20" y="100" width="80" height="40" as="geometry"/>
                </mxCell>
                <mxCell id="113" value="Java 应用" style="rounded=0;whiteSpace=wrap;html=1;fillColor=#fad9d5;strokeColor=#ae4132;" parent="111" vertex="1">
                    <mxGeometry x="20" y="40" width="80" height="40" as="geometry"/>
                </mxCell>
                <mxCell id="285" style="edgeStyle=none;html=1;entryX=0.75;entryY=0;entryDx=0;entryDy=0;" parent="281" source="283" target="110" edge="1">
                    <mxGeometry relative="1" as="geometry"/>
                </mxCell>
                <mxCell id="286" style="edgeStyle=none;html=1;" parent="281" source="283" target="111" edge="1">
                    <mxGeometry relative="1" as="geometry"/>
                </mxCell>
                <mxCell id="290" style="edgeStyle=none;html=1;entryX=0.25;entryY=0;entryDx=0;entryDy=0;" parent="281" source="283" target="287" edge="1">
                    <mxGeometry relative="1" as="geometry"/>
                </mxCell>
                <mxCell id="283" value="容器 Nginx 暴漏 80/443" style="swimlane;fillColor=#f5f5f5;fontColor=#333333;strokeColor=#666666;" parent="281" vertex="1">
                    <mxGeometry x="40" y="10" width="400" height="100" as="geometry"/>
                </mxCell>
                <mxCell id="284" value="HTTP2" style="rounded=0;whiteSpace=wrap;html=1;fillColor=#dae8fc;strokeColor=#6c8ebf;" parent="283" vertex="1">
                    <mxGeometry x="20" y="40" width="60" height="40" as="geometry"/>
                </mxCell>
                <mxCell id="291" value="proxy" style="rounded=0;whiteSpace=wrap;html=1;fillColor=#d5e8d4;strokeColor=#82b366;" parent="283" vertex="1">
                    <mxGeometry x="100" y="40" width="60" height="40" as="geometry"/>
                </mxCell>
                <mxCell id="292" value="rewrite" style="rounded=0;whiteSpace=wrap;html=1;fillColor=#ffe6cc;strokeColor=#d79b00;" parent="283" vertex="1">
                    <mxGeometry x="180" y="40" width="60" height="40" as="geometry"/>
                </mxCell>
                <mxCell id="293" value="gzip" style="rounded=0;whiteSpace=wrap;html=1;fillColor=#f8cecc;strokeColor=#b85450;" parent="283" vertex="1">
                    <mxGeometry x="260" y="40" width="60" height="40" as="geometry"/>
                </mxCell>
                <mxCell id="294" value="cache" style="rounded=0;whiteSpace=wrap;html=1;fillColor=#e1d5e7;strokeColor=#9673a6;" parent="283" vertex="1">
                    <mxGeometry x="330" y="40" width="60" height="40" as="geometry"/>
                </mxCell>
                <mxCell id="287" value="容器 8080" style="swimlane;fillColor=#76608a;fontColor=#ffffff;strokeColor=#432D57;" parent="281" vertex="1">
                    <mxGeometry x="320" y="140" width="120" height="160" as="geometry"/>
                </mxCell>
                <mxCell id="288" value="OpenJDK" style="rounded=0;whiteSpace=wrap;html=1;fillColor=#d0cee2;strokeColor=#56517e;" parent="287" vertex="1">
                    <mxGeometry x="20" y="100" width="80" height="40" as="geometry"/>
                </mxCell>
                <mxCell id="289" value="Java 应用" style="rounded=0;whiteSpace=wrap;html=1;fillColor=#fad9d5;strokeColor=#ae4132;" parent="287" vertex="1">
                    <mxGeometry x="20" y="40" width="80" height="40" as="geometry"/>
                </mxCell>
                <mxCell id="173" value="阿里云管理平台" style="swimlane;fillColor=#d80073;fontColor=#ffffff;strokeColor=#A50040;" parent="1" vertex="1">
                    <mxGeometry x="40" y="1310" width="1420" height="100" as="geometry"/>
                </mxCell>
                <mxCell id="174" value="虚拟 交换机" style="rounded=0;whiteSpace=wrap;html=1;fillColor=#f5f5f5;gradientColor=#b3b3b3;strokeColor=#666666;" parent="173" vertex="1">
                    <mxGeometry x="20" y="40" width="120" height="40" as="geometry"/>
                </mxCell>
                <mxCell id="175" value="虚拟机管理" style="rounded=0;whiteSpace=wrap;html=1;fillColor=#dae8fc;gradientColor=#7ea6e0;strokeColor=#6c8ebf;" parent="173" vertex="1">
                    <mxGeometry x="160" y="40" width="120" height="40" as="geometry"/>
                </mxCell>
                <mxCell id="248" value="虚拟机镜像管理" style="rounded=0;whiteSpace=wrap;html=1;fillColor=#d5e8d4;gradientColor=#97d077;strokeColor=#82b366;" parent="173" vertex="1">
                    <mxGeometry x="320" y="40" width="120" height="40" as="geometry"/>
                </mxCell>
                <mxCell id="249" value="日志管理" style="rounded=0;whiteSpace=wrap;html=1;fillColor=#ffcd28;gradientColor=#ffa500;strokeColor=#d79b00;" parent="173" vertex="1">
                    <mxGeometry x="480" y="40" width="120" height="40" as="geometry"/>
                </mxCell>
                <mxCell id="250" value="EIP管理" style="rounded=0;whiteSpace=wrap;html=1;fillColor=#fff2cc;gradientColor=#ffd966;strokeColor=#d6b656;" parent="173" vertex="1">
                    <mxGeometry x="640" y="40" width="120" height="40" as="geometry"/>
                </mxCell>
                <mxCell id="251" value="SLB管理" style="rounded=0;whiteSpace=wrap;html=1;fillColor=#f8cecc;gradientColor=#ea6b66;strokeColor=#b85450;" parent="173" vertex="1">
                    <mxGeometry x="800" y="40" width="120" height="40" as="geometry"/>
                </mxCell>
                <mxCell id="280" value="监控管理" style="rounded=0;whiteSpace=wrap;html=1;fillColor=#e6d0de;gradientColor=#d5739d;strokeColor=#996185;" parent="173" vertex="1">
                    <mxGeometry x="960" y="40" width="120" height="40" as="geometry"/>
                </mxCell>
                <mxCell id="176" value="本地测试/开发环境" style="swimlane;" parent="1" vertex="1">
                    <mxGeometry x="960" y="-80" width="640" height="560" as="geometry"/>
                </mxCell>
                <mxCell id="177" value="物理机" style="rounded=0;whiteSpace=wrap;html=1;fillColor=#647687;fontColor=#ffffff;strokeColor=#314354;" parent="176" vertex="1">
                    <mxGeometry x="20" y="500" width="600" height="40" as="geometry"/>
                </mxCell>
                <mxCell id="178" value="宿主操作系统 Linux" style="rounded=0;whiteSpace=wrap;html=1;fillColor=#fff2cc;strokeColor=#d6b656;" parent="176" vertex="1">
                    <mxGeometry x="20" y="440" width="600" height="40" as="geometry"/>
                </mxCell>
                <mxCell id="179" value="Docker Engine" style="rounded=0;whiteSpace=wrap;html=1;fillColor=#66B2FF;" parent="176" vertex="1">
                    <mxGeometry x="20" y="380" width="600" height="40" as="geometry"/>
                </mxCell>
                <mxCell id="186" value="Kubernetes" style="swimlane;horizontal=0;fillColor=#00CC66;" parent="176" vertex="1">
                    <mxGeometry x="20" y="40" width="600" height="320" as="geometry"/>
                </mxCell>
                <mxCell id="180" value="Pod 容器" style="swimlane;fillColor=#dae8fc;strokeColor=#6c8ebf;" parent="186" vertex="1">
                    <mxGeometry x="40" y="140" width="120" height="160" as="geometry"/>
                </mxCell>
                <mxCell id="181" value="OpenJDK" style="rounded=0;whiteSpace=wrap;html=1;" parent="180" vertex="1">
                    <mxGeometry x="20" y="100" width="80" height="40" as="geometry"/>
                </mxCell>
                <mxCell id="182" value="Java 应用" style="rounded=0;whiteSpace=wrap;html=1;" parent="180" vertex="1">
                    <mxGeometry x="20" y="40" width="80" height="40" as="geometry"/>
                </mxCell>
                <mxCell id="183" value="Pod 容器" style="swimlane;fillColor=#dae8fc;strokeColor=#6c8ebf;" parent="186" vertex="1">
                    <mxGeometry x="180" y="140" width="120" height="160" as="geometry"/>
                </mxCell>
                <mxCell id="184" value="OpenJDK" style="rounded=0;whiteSpace=wrap;html=1;" parent="183" vertex="1">
                    <mxGeometry x="20" y="100" width="80" height="40" as="geometry"/>
                </mxCell>
                <mxCell id="185" value="Java 应用" style="rounded=0;whiteSpace=wrap;html=1;" parent="183" vertex="1">
                    <mxGeometry x="20" y="40" width="80" height="40" as="geometry"/>
                </mxCell>
                <mxCell id="187" value="Service" style="rounded=0;whiteSpace=wrap;html=1;fillColor=#d5e8d4;strokeColor=#82b366;" parent="186" vertex="1">
                    <mxGeometry x="40" y="80" width="260" height="40" as="geometry"/>
                </mxCell>
                <mxCell id="189" value="Pod 容器" style="swimlane;fillColor=#dae8fc;strokeColor=#6c8ebf;" parent="186" vertex="1">
                    <mxGeometry x="320" y="140" width="120" height="160" as="geometry"/>
                </mxCell>
                <mxCell id="190" value="OpenJDK" style="rounded=0;whiteSpace=wrap;html=1;" parent="189" vertex="1">
                    <mxGeometry x="20" y="100" width="80" height="40" as="geometry"/>
                </mxCell>
                <mxCell id="191" value="Java 应用" style="rounded=0;whiteSpace=wrap;html=1;" parent="189" vertex="1">
                    <mxGeometry x="20" y="40" width="80" height="40" as="geometry"/>
                </mxCell>
                <mxCell id="192" value="Pod 容器" style="swimlane;fillColor=#dae8fc;strokeColor=#6c8ebf;" parent="186" vertex="1">
                    <mxGeometry x="460" y="140" width="120" height="160" as="geometry"/>
                </mxCell>
                <mxCell id="193" value="OpenJDK" style="rounded=0;whiteSpace=wrap;html=1;" parent="192" vertex="1">
                    <mxGeometry x="20" y="100" width="80" height="40" as="geometry"/>
                </mxCell>
                <mxCell id="194" value="Java 应用" style="rounded=0;whiteSpace=wrap;html=1;" parent="192" vertex="1">
                    <mxGeometry x="20" y="40" width="80" height="40" as="geometry"/>
                </mxCell>
                <mxCell id="195" value="Service" style="rounded=0;whiteSpace=wrap;html=1;fillColor=#d5e8d4;strokeColor=#82b366;" parent="186" vertex="1">
                    <mxGeometry x="320" y="80" width="260" height="40" as="geometry"/>
                </mxCell>
                <mxCell id="196" value="Ingress Nginx" style="rounded=0;whiteSpace=wrap;html=1;fillColor=#ffe6cc;strokeColor=#d79b00;" parent="186" vertex="1">
                    <mxGeometry x="40" y="20" width="540" height="40" as="geometry"/>
                </mxCell>
                <mxCell id="252" value="阿里云 ECS Node 节点" style="swimlane;" parent="1" vertex="1">
                    <mxGeometry x="760" y="520" width="700" height="770" as="geometry"/>
                </mxCell>
                <mxCell id="253" value="物理机" style="rounded=0;whiteSpace=wrap;html=1;fillColor=#666666;fontColor=#FFFFFF;" parent="252" vertex="1">
                    <mxGeometry x="20" y="710" width="660" height="40" as="geometry"/>
                </mxCell>
                <mxCell id="254" value="宿主操作系统 Linux" style="rounded=0;whiteSpace=wrap;html=1;fillColor=#fff2cc;strokeColor=#d6b656;" parent="252" vertex="1">
                    <mxGeometry x="20" y="650" width="660" height="40" as="geometry"/>
                </mxCell>
                <mxCell id="255" value="客户操作系统 Linux" style="swimlane;horizontal=0;fillColor=#FFB366;" parent="252" vertex="1">
                    <mxGeometry x="20" y="40" width="660" height="470" as="geometry"/>
                </mxCell>
                <mxCell id="256" value="Docker Engine" style="rounded=0;whiteSpace=wrap;html=1;fillColor=#66B2FF;strokeColor=#000000;fontColor=#FFFFFF;" parent="255" vertex="1">
                    <mxGeometry x="40" y="360" width="600" height="40" as="geometry"/>
                </mxCell>
                <mxCell id="257" value="客户操作系统 Linux" style="rounded=0;whiteSpace=wrap;html=1;fillColor=#ffe6cc;strokeColor=#d79b00;" parent="255" vertex="1">
                    <mxGeometry x="40" y="420.5" width="600" height="40" as="geometry"/>
                </mxCell>
                <mxCell id="258" value="Kubernetes" style="swimlane;horizontal=0;fillColor=#00CC66;" parent="255" vertex="1">
                    <mxGeometry x="40" y="20" width="600" height="320" as="geometry"/>
                </mxCell>
                <mxCell id="259" value="Pod 容器" style="swimlane;fillColor=#d5e8d4;strokeColor=#82b366;" parent="258" vertex="1">
                    <mxGeometry x="40" y="140" width="120" height="160" as="geometry"/>
                </mxCell>
                <mxCell id="260" value="OpenJDK" style="rounded=0;whiteSpace=wrap;html=1;" parent="259" vertex="1">
                    <mxGeometry x="20" y="100" width="80" height="40" as="geometry"/>
                </mxCell>
                <mxCell id="261" value="Java 应用" style="rounded=0;whiteSpace=wrap;html=1;" parent="259" vertex="1">
                    <mxGeometry x="20" y="40" width="80" height="40" as="geometry"/>
                </mxCell>
                <mxCell id="262" value="Pod 容器" style="swimlane;fillColor=#d5e8d4;strokeColor=#82b366;" parent="258" vertex="1">
                    <mxGeometry x="180" y="140" width="120" height="160" as="geometry"/>
                </mxCell>
                <mxCell id="263" value="OpenJDK" style="rounded=0;whiteSpace=wrap;html=1;" parent="262" vertex="1">
                    <mxGeometry x="20" y="100" width="80" height="40" as="geometry"/>
                </mxCell>
                <mxCell id="264" value="Java 应用" style="rounded=0;whiteSpace=wrap;html=1;" parent="262" vertex="1">
                    <mxGeometry x="20" y="40" width="80" height="40" as="geometry"/>
                </mxCell>
                <mxCell id="265" value="Service" style="rounded=0;whiteSpace=wrap;html=1;fillColor=#dae8fc;strokeColor=#6c8ebf;" parent="258" vertex="1">
                    <mxGeometry x="40" y="80" width="260" height="40" as="geometry"/>
                </mxCell>
                <mxCell id="266" value="Pod 容器" style="swimlane;fillColor=#d5e8d4;strokeColor=#82b366;" parent="258" vertex="1">
                    <mxGeometry x="320" y="140" width="120" height="160" as="geometry"/>
                </mxCell>
                <mxCell id="267" value="OpenJDK" style="rounded=0;whiteSpace=wrap;html=1;" parent="266" vertex="1">
                    <mxGeometry x="20" y="100" width="80" height="40" as="geometry"/>
                </mxCell>
                <mxCell id="268" value="Java 应用" style="rounded=0;whiteSpace=wrap;html=1;" parent="266" vertex="1">
                    <mxGeometry x="20" y="40" width="80" height="40" as="geometry"/>
                </mxCell>
                <mxCell id="269" value="Pod 容器" style="swimlane;fillColor=#d5e8d4;strokeColor=#82b366;" parent="258" vertex="1">
                    <mxGeometry x="460" y="140" width="120" height="160" as="geometry"/>
                </mxCell>
                <mxCell id="270" value="OpenJDK" style="rounded=0;whiteSpace=wrap;html=1;" parent="269" vertex="1">
                    <mxGeometry x="20" y="100" width="80" height="40" as="geometry"/>
                </mxCell>
                <mxCell id="271" value="Java 应用" style="rounded=0;whiteSpace=wrap;html=1;" parent="269" vertex="1">
                    <mxGeometry x="20" y="40" width="80" height="40" as="geometry"/>
                </mxCell>
                <mxCell id="272" value="Service" style="rounded=0;whiteSpace=wrap;html=1;fillColor=#dae8fc;strokeColor=#6c8ebf;" parent="258" vertex="1">
                    <mxGeometry x="320" y="80" width="260" height="40" as="geometry"/>
                </mxCell>
                <mxCell id="273" value="Ingress Nginx" style="rounded=0;whiteSpace=wrap;html=1;fillColor=#e1d5e7;strokeColor=#9673a6;" parent="258" vertex="1">
                    <mxGeometry x="40" y="20" width="540" height="40" as="geometry"/>
                </mxCell>
                <mxCell id="274" value="KVM 虚拟机" style="swimlane;fillColor=#9933FF;strokeColor=#7F00FF;fontColor=#FFFFFF;" parent="252" vertex="1">
                    <mxGeometry x="20" y="530" width="660" height="100" as="geometry"/>
                </mxCell>
                <mxCell id="275" value="虚拟 网络" style="rounded=0;whiteSpace=wrap;html=1;fillColor=#f5f5f5;fontColor=#333333;strokeColor=#666666;" parent="274" vertex="1">
                    <mxGeometry x="20" y="40" width="100" height="40" as="geometry"/>
                </mxCell>
                <mxCell id="276" value="虚拟 CPU" style="rounded=0;whiteSpace=wrap;html=1;fillColor=#dae8fc;strokeColor=#6c8ebf;" parent="274" vertex="1">
                    <mxGeometry x="140" y="40" width="100" height="40" as="geometry"/>
                </mxCell>
                <mxCell id="277" value="虚拟&amp;nbsp; 内存" style="rounded=0;whiteSpace=wrap;html=1;fillColor=#d5e8d4;strokeColor=#82b366;" parent="274" vertex="1">
                    <mxGeometry x="260" y="40" width="100" height="40" as="geometry"/>
                </mxCell>
                <mxCell id="278" value="虚拟&amp;nbsp; 磁盘" style="rounded=0;whiteSpace=wrap;html=1;fillColor=#ffe6cc;strokeColor=#d79b00;" parent="274" vertex="1">
                    <mxGeometry x="380" y="40" width="100" height="40" as="geometry"/>
                </mxCell>
                <mxCell id="279" value="虚拟&amp;nbsp; 设备" style="rounded=0;whiteSpace=wrap;html=1;fillColor=#fff2cc;strokeColor=#d6b656;" parent="274" vertex="1">
                    <mxGeometry x="500" y="40" width="100" height="40" as="geometry"/>
                </mxCell>
            </root>
        </mxGraphModel>
    </diagram>
</mxfile>